<svg version="1.1" id="Layer_1" xmlns="http://www.w3.org/2000/svg" xmlns:xlink="http://www.w3.org/1999/xlink" x="0px" y="0px"
	 width="100%" viewBox="0 0 1466 970" enable-background="new 0 0 1466 970" xml:space="preserve">
<path fill="#FFFFFF" opacity="1.000000" stroke="none" 
	d="
M1.000000,378.000000 
	C1.000000,252.387817 1.000000,126.775635 1.000000,1.000000 
	C200.025803,1.000000 399.051666,1.000000 598.323120,1.345850 
	C594.375427,2.434256 590.105835,2.887467 586.001831,3.968937 
	C567.239990,8.912992 552.538513,20.043051 539.389099,33.961399 
	C521.819946,52.557964 510.545898,74.619751 501.851379,98.313957 
	C489.287781,132.552277 484.403625,168.583084 477.163239,204.055466 
	C476.309479,208.238235 474.341858,209.815170 470.786102,209.929459 
	C464.075928,210.145157 457.308868,210.508347 450.646698,209.908401 
	C435.915436,208.581787 421.243011,206.610336 406.521179,205.159485 
	C404.891663,204.998901 402.351654,206.022186 401.502380,207.323975 
	C396.474518,215.030838 391.461914,222.790665 387.140228,230.903442 
	C382.566895,239.488586 384.737885,243.839584 393.818512,247.073410 
	C411.228912,253.273666 429.336700,255.096268 447.616882,256.021332 
	C454.648376,256.377167 461.667664,256.973541 468.887146,257.473785 
	C468.565338,258.504089 468.222748,259.255768 468.101105,260.041718 
	C466.068085,273.178436 463.955933,286.304230 462.081512,299.463806 
	C460.251404,312.312469 458.737457,325.205933 456.951294,338.061188 
	C456.072144,344.388550 454.891541,350.674042 453.494568,356.956665 
	C449.372559,355.245605 445.691406,353.311829 441.816345,351.916534 
	C432.944153,348.721924 430.447052,349.698303 424.749786,357.509338 
	C413.906158,372.376068 402.755554,386.996246 389.050873,399.421295 
	C383.780579,404.199463 378.393677,408.851196 372.998260,413.488800 
	C357.496338,426.813354 340.828918,438.326263 321.777924,446.067596 
	C311.605804,450.201050 300.987762,453.548187 290.054749,452.782654 
	C269.712524,451.358276 255.701569,439.922180 246.089508,422.365906 
	C236.518127,404.883942 232.127289,385.846405 231.312378,366.347626 
	C230.573975,348.679352 231.161896,330.741333 233.445099,313.219391 
	C235.881500,294.521851 240.277847,275.985413 245.079391,257.709869 
	C255.390488,218.464127 271.035248,181.400192 293.359192,147.361420 
	C306.069824,127.980652 320.568909,110.162422 340.694550,97.916336 
	C354.241699,89.673134 368.699493,86.092346 383.463348,94.374763 
	C396.563049,101.723610 403.446411,114.209381 407.964172,128.039108 
	C411.285553,138.206345 414.048065,148.559067 417.514130,158.673370 
	C418.140594,160.501404 420.884308,162.667343 422.795929,162.816666 
	C434.107605,163.700272 445.193298,161.980331 456.116486,158.933640 
	C461.301178,157.487503 463.521729,154.330597 462.999298,149.081680 
	C460.876312,127.750923 456.414642,107.069046 446.438660,87.843567 
	C440.150116,75.724411 431.698242,65.560295 420.458130,57.738373 
	C397.534790,41.786140 372.240479,40.096344 345.895905,45.598930 
	C324.819031,50.001259 305.768402,59.304497 289.168610,72.747528 
	C277.761292,81.985558 267.471558,92.699005 257.324524,103.364014 
	C250.652115,110.376984 245.123108,118.477829 238.754532,125.934998 
	C225.396179,117.471466 212.463776,120.611473 203.977325,130.526337 
	C199.390305,135.885452 197.531219,142.210266 197.893753,149.746460 
	C195.563553,148.111145 193.907227,146.762421 192.083817,145.700623 
	C183.144043,140.494904 173.717560,139.562180 164.795578,144.923599 
	C148.232651,154.876648 149.844864,178.296860 165.030060,189.654236 
	C175.396957,197.407913 187.641129,202.651611 198.897644,209.351334 
	C194.203262,223.804367 188.997650,237.751541 185.259308,252.081497 
	C179.008408,276.042755 175.412292,300.573456 174.203720,325.274200 
	C173.085358,348.131226 173.295654,371.119415 177.205444,393.772736 
	C180.587128,413.366089 186.326645,432.287506 195.923233,449.915710 
	C206.858215,470.002411 222.138596,485.707001 242.666733,495.750885 
	C262.827759,505.615143 284.300232,507.645325 306.517792,505.180328 
	C324.465912,503.188965 341.444427,498.122681 357.651947,490.588898 
	C382.643799,478.971832 404.839783,463.204529 424.058136,443.394135 
	C432.127747,435.075958 439.929657,426.498108 447.909058,418.483093 
	C447.309845,429.139923 446.480255,439.344788 446.058899,449.566498 
	C445.757141,456.886780 447.042542,459.011169 454.274689,459.855530 
	C465.238068,461.135468 476.335785,461.226196 487.357269,462.071716 
	C490.486847,462.311768 492.294434,461.075836 493.717346,458.622925 
	C503.369781,441.983276 512.832031,425.229187 522.744263,408.745667 
	C531.444214,394.278198 541.495483,380.775665 554.121216,369.409027 
	C563.715576,360.771515 572.672119,362.284912 578.360779,373.982635 
	C583.025085,383.573944 586.901611,393.554993 590.963318,403.430756 
	C595.038208,413.338654 599.904602,422.748260 609.006042,428.945129 
	C626.282776,440.708160 644.504639,439.401367 663.000366,432.617035 
	C662.280212,446.938141 661.663696,460.818634 665.067017,474.462494 
	C670.205750,495.063629 680.780518,511.585052 700.683044,520.854248 
	C713.427856,526.789917 726.884399,528.540955 740.874268,528.083557 
	C759.285522,527.481689 775.027344,520.490356 788.674683,508.709778 
	C807.849976,492.157471 820.432922,471.107086 829.133484,447.512604 
	C829.790771,445.730133 832.051758,443.651978 833.862549,443.319580 
	C851.346802,440.110107 868.296692,435.263245 884.544189,427.999847 
	C900.453308,420.887695 914.962524,411.739014 926.691345,398.681641 
	C929.218018,395.868713 931.718445,392.281982 928.618713,388.423187 
	C922.921021,381.330353 917.023438,374.386688 910.911011,367.651489 
	C910.043030,366.695129 907.060974,366.509064 905.815613,367.246674 
	C900.983582,370.108398 896.326904,373.314117 891.841675,376.704926 
	C876.260071,388.484680 858.583069,394.393860 838.798401,396.464050 
	C840.007324,380.140259 838.034180,364.803253 832.119873,350.109131 
	C825.480286,333.612732 815.445251,320.082275 799.034485,311.967560 
	C787.248779,306.139832 774.876648,305.199066 761.981812,305.883301 
	C747.177551,306.668854 734.279907,311.827118 722.724915,320.782227 
	C712.141724,328.984192 703.478455,338.973175 695.620972,350.110718 
	C692.313477,352.550446 689.143921,354.663574 686.368469,357.206879 
	C679.638611,363.373810 673.496155,370.253662 666.355286,375.879395 
	C659.570984,381.224182 651.923950,385.518250 644.451233,389.926849 
	C640.500427,392.257690 636.921814,390.853973 634.989136,386.766693 
	C631.487244,379.361023 627.754211,371.995605 625.091980,364.277313 
	C620.515076,351.007812 615.752686,337.871429 606.889343,326.789703 
	C591.591003,307.662231 574.472717,304.099701 553.613525,315.074890 
	C537.521362,323.541840 525.350098,336.597412 514.862061,351.303833 
	C511.754883,355.660767 508.169250,359.676514 504.802856,363.848602 
	C504.574127,363.687317 504.345367,363.526001 504.116638,363.364685 
	C509.524353,326.030609 514.932068,288.696503 520.378906,251.092209 
	C554.672791,241.975067 584.704468,224.824982 610.344238,200.694321 
	C622.153503,189.580170 632.392822,176.547653 642.002319,163.404037 
	C657.127869,142.715637 666.649414,119.247665 671.817261,94.148071 
	C674.567383,80.791031 675.494324,67.125526 672.687378,53.743744 
	C667.053894,26.887022 649.968750,10.724655 623.706238,3.880038 
	C619.505981,2.785336 615.237122,1.953403 611.000000,0.999998 
	C896.249634,1.000000 1181.499268,1.000000 1467.000000,1.000000 
	C1467.000000,195.692429 1467.000000,390.384979 1466.686768,585.327881 
	C1464.695435,574.080078 1455.933350,564.913391 1445.653076,564.023010 
	C1434.038208,563.016907 1425.193481,568.565613 1417.703003,576.591919 
	C1416.000000,573.145935 1414.672852,570.108826 1413.048096,567.240356 
	C1408.584961,559.361267 1397.334229,554.872986 1388.728760,556.544678 
	C1370.954224,559.997742 1365.173950,575.481567 1368.683228,591.060852 
	C1374.067871,614.964355 1391.269897,631.602905 1406.375244,650.276306 
	C1413.608887,645.994873 1420.728394,642.184998 1427.425049,637.738220 
	C1444.554321,626.363586 1461.135376,614.387634 1467.000000,593.000000 
	C1467.000000,718.959961 1467.000000,844.919861 1467.000000,971.000000 
	C1149.974121,971.000000 832.948303,971.000000 515.647217,970.703613 
	C516.571899,968.723389 518.507202,967.176208 518.849792,965.332947 
	C520.776489,954.967957 522.696960,944.574585 523.883423,934.107361 
	C524.980408,924.430359 519.343201,916.489197 509.694305,915.152649 
	C497.115356,913.410400 484.366730,912.713989 471.665344,912.099365 
	C463.544739,911.706421 455.378021,912.343628 447.231201,912.394775 
	C436.320160,912.463379 425.408325,912.411804 414.390228,912.411804 
	C415.704590,901.722534 416.976166,891.087097 418.328339,880.461975 
	C419.847839,868.522278 421.444611,856.592529 422.999268,844.657288 
	C424.213287,835.337402 425.431122,826.017944 426.616821,816.694458 
	C428.094360,805.076355 429.540558,793.454285 431.000366,781.833923 
	C432.439728,770.376465 433.855652,758.916077 435.325104,747.462463 
	C436.856720,735.524353 438.444580,723.593384 439.999237,711.658203 
	C441.213226,702.338257 442.430756,693.018799 443.616486,683.695251 
	C445.094025,672.077209 446.540588,660.455139 448.000397,648.834839 
	C449.439758,637.377380 450.839722,625.914795 452.329346,614.463867 
	C453.839355,602.856262 455.500427,591.268127 456.979919,579.656738 
	C458.460754,568.035400 459.729553,556.386902 461.218903,544.766724 
	C462.727631,532.995605 464.545990,521.261963 465.888885,509.473236 
	C466.257904,506.233673 465.742584,502.037476 461.172821,502.238068 
	C445.640472,502.919708 430.125580,504.015839 414.608643,505.024139 
	C406.652771,505.541107 404.661285,507.957794 403.948975,516.053589 
	C402.791626,529.207947 401.423157,542.347656 399.895203,555.464539 
	C397.719849,574.139282 395.215240,592.775696 393.050751,611.451599 
	C391.511322,624.734131 390.429596,638.069641 388.910126,651.354736 
	C387.073547,667.412354 384.884277,683.429626 383.047089,699.487183 
	C381.527130,712.772217 380.443939,726.107605 378.902954,739.389954 
	C376.736176,758.065674 374.201019,776.698853 372.055634,795.376892 
	C370.190857,811.611511 368.793152,827.899780 366.925812,844.134094 
	C364.777374,862.811951 362.209595,881.441589 360.063721,900.119690 
	C357.878540,919.140259 356.002686,938.196106 353.954681,957.232605 
	C353.178162,964.450134 357.329468,969.271851 364.605072,968.954895 
	C376.014404,968.457703 387.403687,967.327637 398.814667,967.082825 
	C414.303375,966.750305 429.806000,966.873901 445.300018,967.041443 
	C456.918488,967.167053 468.549377,967.402344 480.142242,968.116150 
	C486.131317,968.484924 492.049683,970.001831 498.000000,971.000000 
	C332.398163,971.000000 166.796295,971.000000 1.000000,971.000000 
	C1.000000,776.974243 1.000000,582.948364 1.334090,388.655762 
	C2.700826,398.271362 7.864812,404.901978 17.440554,407.660889 
	C23.001003,409.262970 28.728191,410.286316 34.746922,411.653351 
	C33.394047,413.754395 32.028027,415.601685 30.946188,417.602631 
	C25.873785,426.984528 22.328316,436.749512 27.671574,447.102295 
	C34.899517,461.106750 58.106239,464.965790 68.053337,453.286407 
	C72.745354,447.777313 76.501785,441.471344 80.880661,435.244141 
	C82.129143,436.764313 83.689041,438.644653 85.228584,440.541534 
	C91.870598,448.725250 101.073029,454.468414 113.217247,452.108948 
	C129.606720,448.924683 138.889328,425.672241 128.927155,412.803253 
	C125.033577,407.773621 120.973907,402.872620 116.660706,397.503235 
	C124.971069,395.948639 132.255081,393.001282 137.319275,386.955048 
	C148.805054,373.242035 141.464859,356.494415 131.189178,349.151123 
	C123.997597,344.011841 115.804642,343.852631 107.636505,346.772308 
	C102.796219,348.502411 98.113976,350.674652 93.829987,352.453247 
	C92.870094,346.697113 92.574867,340.833893 90.857063,335.422241 
	C86.384369,321.331848 73.139763,316.500549 63.556202,318.388916 
	C48.387486,321.377808 40.872372,331.212097 41.075439,346.833252 
	C41.135651,351.464966 42.100395,356.084900 42.658791,360.778625 
	C38.310120,359.869354 34.349648,358.676544 30.309988,358.269287 
	C20.620016,357.292450 7.051802,359.863708 2.777147,372.620239 
	C2.177101,374.410919 1.592008,376.206635 1.000000,378.000000 
M1315.174683,303.532257 
	C1318.954224,307.465240 1322.377930,311.514221 1328.600708,312.120544 
	C1338.597168,313.094482 1344.747681,307.264618 1350.729736,300.548553 
	C1352.492065,304.026184 1354.001587,307.173279 1355.658569,310.240692 
	C1359.514648,317.379578 1367.502075,321.772034 1374.248291,319.693909 
	C1388.239136,315.384003 1393.539795,306.143982 1388.310791,291.735992 
	C1387.429443,289.307861 1386.334351,286.957336 1385.151489,284.124207 
	C1388.541260,283.687897 1391.308594,283.332397 1394.075806,282.975372 
	C1401.608643,282.003571 1408.430420,275.962891 1409.869995,268.990387 
	C1411.327637,261.928925 1406.634155,251.122406 1400.510498,247.859436 
	C1398.806519,246.951523 1396.823975,246.174942 1394.933350,246.084625 
	C1389.847290,245.841583 1384.741821,246.001587 1379.723389,246.001587 
	C1380.118408,242.385254 1380.868408,238.355850 1380.939575,234.314514 
	C1381.119995,224.054810 1377.266235,218.846588 1367.742188,215.821106 
	C1360.391846,213.486115 1351.556030,216.587311 1347.156250,224.017792 
	C1344.410889,228.654190 1342.973633,234.065170 1340.981323,239.048248 
	C1338.873413,237.984833 1336.589600,236.586411 1334.131226,235.642319 
	C1328.550171,233.499008 1322.971680,231.295700 1316.931152,234.513306 
	C1304.586548,241.088959 1303.379028,260.074432 1314.933594,267.941376 
	C1317.747681,269.857330 1320.770264,271.467407 1324.479126,273.686096 
	C1322.203979,275.098816 1320.588379,276.102020 1318.371948,276.780426 
	C1315.579834,273.517914 1312.603394,270.393402 1310.036743,266.962189 
	C1305.629395,261.070190 1305.059204,260.865265 1298.967407,265.016327 
	C1298.285889,265.480713 1297.642944,266.002441 1296.991333,266.509583 
	C1278.847290,280.630798 1259.171631,291.154266 1235.336670,292.693726 
	C1235.222778,291.374481 1235.052979,290.087860 1235.009277,288.796997 
	C1234.509399,274.046387 1232.718872,259.558685 1227.351440,245.639771 
	C1214.261475,211.694504 1184.136963,198.097153 1151.865112,202.460129 
	C1128.586060,205.607361 1111.508911,220.346207 1097.009888,238.025757 
	C1084.721313,253.010132 1076.250244,270.178589 1068.192139,288.060577 
	C1066.755127,288.872162 1065.274536,289.615662 1063.887695,290.505463 
	C1039.455200,306.181213 1014.069153,319.712128 984.973511,324.457855 
	C969.041748,327.056488 956.929260,322.627747 950.502380,305.076233 
	C946.834900,295.060486 947.079224,284.573364 948.338562,274.500732 
	C950.885742,254.127533 958.104919,235.257080 971.481262,219.287598 
	C978.135864,211.342896 986.382751,205.151581 996.996216,204.168930 
	C1009.419434,203.018692 1019.058350,208.564224 1026.424805,218.558380 
	C1028.271484,221.063644 1031.276123,224.659866 1033.570923,224.533356 
	C1041.090576,224.118820 1048.604370,222.539825 1055.970459,220.780151 
	C1060.830933,219.619034 1063.924561,215.294968 1062.840820,211.156281 
	C1061.133179,204.634811 1059.402954,197.879181 1056.200439,192.034592 
	C1046.870728,175.007507 1032.103760,165.195923 1013.048767,161.468231 
	C994.816772,157.901550 977.226257,159.789597 960.800354,168.235229 
	C937.776611,180.073196 922.081116,199.235992 911.058472,222.153961 
	C898.823853,247.591919 893.574158,274.413269 897.996826,302.670258 
	C901.119446,322.621155 909.327148,339.793030 924.748657,353.375916 
	C937.280945,364.414001 952.186401,369.536682 968.270752,370.831757 
	C989.658813,372.553894 1010.629761,369.423065 1030.879395,362.130768 
	C1039.917114,358.876160 1048.882202,355.420044 1057.965454,352.941345 
	C1058.311157,356.385956 1058.489258,359.857239 1059.031860,363.270569 
	C1061.407227,378.212555 1066.250977,392.133148 1076.893188,403.351044 
	C1096.050171,423.544250 1120.482666,427.351624 1146.274902,423.534790 
	C1169.661621,420.073914 1187.229736,406.334625 1201.257812,387.599121 
	C1211.489990,373.933350 1218.332520,358.597321 1225.004395,343.088074 
	C1225.718384,341.428467 1227.688477,339.620819 1229.402466,339.194550 
	C1238.652588,336.893890 1248.175659,335.577759 1257.289185,332.863190 
	C1278.334717,326.594574 1298.141724,317.694061 1315.174683,303.532257 
M1076.643921,809.211609 
	C1080.515869,811.738220 1084.451904,814.172607 1088.247803,816.808716 
	C1099.571411,824.672363 1111.859131,829.934814 1125.741699,830.996643 
	C1144.793823,832.453979 1162.575317,828.297974 1179.201782,818.941162 
	C1195.113403,809.986633 1207.875854,797.687805 1217.688721,782.379883 
	C1219.339966,779.803833 1221.501587,775.787231 1218.292725,773.398560 
	C1211.431274,768.290894 1204.182373,763.584290 1196.630371,759.585510 
	C1193.804688,758.089355 1189.199097,757.417297 1186.586792,761.101135 
	C1178.076416,773.102295 1166.227905,780.680176 1153.083130,786.364563 
	C1136.739014,793.432495 1121.874390,787.576294 1114.243774,771.535828 
	C1111.620483,766.021423 1112.731445,762.481934 1118.439331,759.932495 
	C1122.027710,758.329773 1125.931030,757.442871 1129.666504,756.157471 
	C1151.964355,748.484802 1170.749268,735.115234 1187.940063,719.437317 
	C1203.068970,705.639954 1212.312988,688.717590 1215.325806,668.036255 
	C1218.423584,646.772156 1209.040283,626.152954 1189.469482,616.283936 
	C1174.827881,608.900696 1159.213623,607.578674 1143.056274,609.913757 
	C1117.766357,613.568604 1097.184937,625.454224 1081.456543,645.318115 
	C1061.687988,670.284668 1054.464233,699.731018 1053.156616,730.839905 
	C1052.763672,740.186707 1054.240234,749.612061 1054.286011,759.309753 
	C1044.789062,768.108093 1035.348267,776.968201 1025.781494,785.689941 
	C1011.904358,798.341309 997.257874,809.930969 979.664490,817.104431 
	C958.845093,825.593445 938.062500,821.031555 927.325684,798.733582 
	C919.831116,783.169067 917.831116,766.415710 917.128418,749.557068 
	C916.271729,729.001587 917.892029,708.510315 920.943237,688.142395 
	C923.459778,671.343140 925.602844,654.486206 928.268555,637.711548 
	C931.657349,616.386902 935.507385,595.135681 938.905884,573.812500 
	C939.506348,570.045044 941.651672,568.547058 944.724792,568.116699 
	C949.300171,567.475952 953.944397,567.302124 958.564270,567.009033 
	C969.299133,566.328064 980.036804,565.692688 990.773621,565.042603 
	C996.056091,564.722778 1001.352783,564.006287 1006.618835,564.184509 
	C1016.034485,564.503235 1025.427368,565.781372 1034.837891,565.880066 
	C1044.270020,565.978943 1047.761475,562.338989 1049.040039,553.038696 
	C1050.072998,545.523926 1050.956421,537.975769 1052.360107,530.528015 
	C1054.241821,520.545532 1049.096436,513.890137 1038.854736,514.034790 
	C1025.235718,514.227234 1011.620178,514.665833 998.003174,515.001099 
	C996.339233,515.042053 994.674683,515.076172 993.012024,515.150085 
	C978.636353,515.789429 964.261108,516.437012 949.693054,517.090881 
	C949.886963,514.981323 949.850403,513.315857 950.212769,511.742249 
	C956.768311,483.277191 963.366577,454.821930 969.969360,426.367737 
	C971.572205,419.460571 970.312622,416.595490 963.431274,414.359314 
	C957.809448,412.532349 951.979004,410.833130 946.131653,410.316956 
	C932.391418,409.104065 919.241394,412.073730 913.851257,426.693298 
	C909.919861,437.356537 906.592163,448.338745 904.149109,459.432861 
	C899.966309,478.427277 896.591797,497.603363 893.112854,516.745850 
	C892.466675,520.301575 890.369934,521.474915 887.458496,521.906006 
	C875.550293,523.669250 863.550720,524.920288 851.730225,527.135681 
	C843.165405,528.740967 834.649414,531.080627 826.484741,534.101196 
	C823.451660,535.223328 819.567566,539.089722 819.379517,541.924011 
	C818.785339,550.881531 818.602966,560.184509 820.428955,568.899597 
	C822.466125,578.622437 822.672485,582.039062 835.379150,580.889099 
	C846.366882,579.894836 857.264709,577.920044 868.209045,576.428406 
	C872.651611,575.822998 877.112061,575.349670 882.187073,574.741577 
	C880.676208,584.228516 879.214478,592.492004 878.064575,600.798706 
	C874.627319,625.628784 870.875061,650.426941 868.094238,675.332336 
	C866.040833,693.724121 864.820496,712.247253 864.188477,730.744751 
	C863.817200,741.612793 865.373108,752.542358 865.972351,763.449097 
	C866.915039,780.608337 870.808960,797.114380 877.149597,813.026428 
	C882.969971,827.632812 891.528442,840.675232 904.015991,850.175415 
	C924.560364,865.804932 948.051270,871.617676 973.782166,868.064697 
	C1001.923096,864.178955 1025.721802,850.888000 1047.593018,833.738953 
	C1057.483887,825.983643 1066.572510,817.204956 1076.643921,809.211609 
M801.005127,763.494690 
	C788.896240,774.596924 777.238708,786.252075 764.531921,796.621643 
	C754.833740,804.536011 744.452759,812.180054 733.223450,817.523071 
	C715.071045,826.160095 705.979797,824.216248 699.782593,803.794373 
	C695.408691,789.381348 694.841248,774.763367 697.011902,760.023682 
	C699.776855,741.248840 702.828247,722.514771 705.904602,703.787537 
	C708.126221,690.263672 710.712585,676.799500 712.902771,663.270874 
	C714.375732,654.172607 712.344360,650.956421 703.379272,650.135925 
	C693.075378,649.192932 682.664185,648.952820 672.313232,649.144165 
	C664.273010,649.292664 661.065308,652.447510 659.430542,660.331848 
	C658.359375,665.497925 657.826050,670.773743 656.985718,675.989807 
	C655.977295,682.249084 654.898499,688.497131 653.725830,695.491394 
	C649.323181,692.839111 645.627808,690.962219 642.314270,688.558899 
	C623.583740,674.973816 602.701294,670.839355 580.069397,673.950867 
	C551.923828,677.820618 529.083862,691.344849 511.584167,713.282166 
	C493.212280,736.312805 486.012604,762.910645 488.884918,792.378235 
	C490.568176,809.647644 496.009186,825.269226 506.141327,839.339294 
	C523.522583,863.476013 552.180420,874.471069 580.604370,866.799561 
	C603.359192,860.658203 621.005615,846.772644 635.047913,828.022034 
	C639.527649,822.040344 644.512268,816.436707 649.774109,810.042480 
	C651.760132,817.034912 653.057251,822.645203 654.946655,828.048523 
	C659.652588,841.506958 666.977661,853.158325 679.498291,860.736145 
	C694.025146,869.528076 709.793030,870.503052 726.049683,867.460815 
	C746.804871,863.576782 765.465942,854.470886 782.588379,842.642334 
	C796.174316,833.256958 808.694885,822.316650 821.575134,811.926147 
	C835.356140,800.809143 846.772278,787.402039 857.616211,773.535461 
	C863.768616,765.668030 863.435669,764.135681 857.105774,756.570190 
	C856.682495,756.064209 856.417175,755.416626 855.961487,754.948669 
	C849.150208,747.953552 842.576904,740.696350 835.388916,734.110596 
	C831.532043,730.576843 828.456116,731.664001 825.196960,735.522034 
	C817.394592,744.757996 809.415771,753.844849 801.005127,763.494690 
M1315.099609,703.337402 
	C1314.773560,702.768982 1314.481445,702.177673 1314.116333,701.635498 
	C1309.149170,694.258728 1305.718384,686.360962 1306.010986,677.251221 
	C1306.305176,668.083069 1311.876343,663.579346 1320.587036,666.102234 
	C1325.095947,667.408142 1329.414673,669.699341 1333.483765,672.111572 
	C1338.366821,675.006470 1342.892212,678.504700 1347.817505,681.911072 
	C1353.892822,675.080566 1359.666260,668.264343 1365.833008,661.824768 
	C1368.136230,659.419556 1368.088135,657.553406 1366.017578,655.609070 
	C1361.076538,650.968933 1356.305298,646.045593 1350.860718,642.063232 
	C1334.055054,629.770935 1315.282471,625.664001 1294.830200,630.032349 
	C1276.302124,633.989807 1262.089111,644.138000 1254.434204,661.511658 
	C1245.539185,681.699890 1248.073853,701.976562 1256.915894,721.734253 
	C1263.787598,737.089478 1275.017090,749.511902 1284.505249,763.117981 
	C1291.891724,773.710327 1300.421753,783.775452 1302.262451,797.350647 
	C1302.964966,802.531006 1300.588623,806.504639 1295.656250,808.085083 
	C1288.887817,810.253845 1282.865479,808.433716 1277.413696,804.784241 
	C1271.549316,800.858459 1265.896362,796.538269 1260.589722,791.889587 
	C1257.734009,789.388000 1256.144653,790.027222 1254.065063,792.400635 
	C1248.726685,798.492859 1243.423584,804.622131 1237.897705,810.541809 
	C1233.033813,815.752258 1232.715576,817.269958 1237.952637,822.337952 
	C1243.169800,827.386536 1248.803589,832.006836 1254.286255,836.778625 
	C1265.973145,846.950317 1279.775146,852.879761 1294.998901,853.804077 
	C1320.049072,855.324951 1338.546143,843.935730 1349.945312,821.766602 
	C1356.520752,808.978882 1358.791748,795.278381 1357.205200,780.668274 
	C1355.710938,766.906921 1351.865601,754.265808 1343.945557,743.025085 
	C1334.667725,729.856812 1325.000244,716.962952 1315.099609,703.337402 
M758.583984,606.186218 
	C767.186890,603.421387 772.562561,595.995239 771.995239,587.659485 
	C771.480347,580.093628 765.747620,574.134216 756.921753,573.094299 
	C751.405884,572.444336 745.751160,572.973389 740.977661,572.973389 
	C740.977661,567.483337 741.512329,562.141174 740.844788,556.953735 
	C739.974365,550.189514 736.574280,544.342529 729.623108,542.490417 
	C723.360718,540.821716 717.312988,541.785706 712.288879,547.058716 
	C706.528076,553.104797 704.773743,560.299133 704.839661,568.370056 
	C687.187500,559.383789 676.662109,559.828003 670.675415,570.107361 
	C669.026367,572.938843 667.854004,576.827576 668.307373,579.964600 
	C669.972534,591.485840 678.588257,596.786011 689.151367,600.066223 
	C685.635071,603.313721 682.377075,605.703247 679.908875,608.735596 
	C675.261902,614.444885 673.524353,621.095398 676.240723,628.200256 
	C678.351501,633.721191 682.785095,637.131409 688.559998,637.854858 
	C697.645508,638.992981 705.100281,635.548462 710.836060,628.404480 
	C711.797241,627.207336 712.808167,626.050232 713.405334,625.339600 
	C717.415344,630.932800 720.458069,636.800537 724.998291,641.079041 
	C730.125427,645.910583 737.110291,646.883423 743.426086,643.013489 
	C746.469055,641.148987 749.519470,637.989990 750.754822,634.730530 
	C754.253174,625.499756 751.343445,617.006165 745.392090,609.575867 
	C749.900635,608.489197 753.894775,607.526489 758.583984,606.186218 
z"/>
<path fill="#FEC357" opacity="1.000000" stroke="none" 
	d="
M453.847321,356.978485 
	C454.891541,350.674042 456.072144,344.388550 456.951294,338.061188 
	C458.737457,325.205933 460.251404,312.312469 462.081512,299.463806 
	C463.955933,286.304230 466.068085,273.178436 468.101105,260.041718 
	C468.222748,259.255768 468.565338,258.504089 468.887146,257.473785 
	C461.667664,256.973541 454.648376,256.377167 447.616882,256.021332 
	C429.336700,255.096268 411.228912,253.273666 393.818512,247.073410 
	C384.737885,243.839584 382.566895,239.488586 387.140228,230.903442 
	C391.461914,222.790665 396.474518,215.030838 401.502380,207.323975 
	C402.351654,206.022186 404.891663,204.998901 406.521179,205.159485 
	C421.243011,206.610336 435.915436,208.581787 450.646698,209.908401 
	C457.308868,210.508347 464.075928,210.145157 470.786102,209.929459 
	C474.341858,209.815170 476.309479,208.238235 477.163239,204.055466 
	C484.403625,168.583084 489.287781,132.552277 501.851379,98.313957 
	C510.545898,74.619751 521.819946,52.557964 539.389099,33.961399 
	C552.538513,20.043051 567.239990,8.912992 586.001831,3.968937 
	C590.105835,2.887467 594.375427,2.434256 598.784363,1.345850 
	C602.692932,1.000000 606.385803,1.000000 610.539368,0.999998 
	C615.237122,1.953403 619.505981,2.785336 623.706238,3.880038 
	C649.968750,10.724655 667.053894,26.887022 672.687378,53.743744 
	C675.494324,67.125526 674.567383,80.791031 671.817261,94.148071 
	C666.649414,119.247665 657.127869,142.715637 642.002319,163.404037 
	C632.392822,176.547653 622.153503,189.580170 610.344238,200.694321 
	C584.704468,224.824982 554.672791,241.975067 520.378906,251.092209 
	C514.932068,288.696503 509.524353,326.030609 504.116638,363.364685 
	C504.345367,363.526001 504.574127,363.687317 504.802856,363.848602 
	C508.169250,359.676514 511.754883,355.660767 514.862061,351.303833 
	C525.350098,336.597412 537.521362,323.541840 553.613525,315.074890 
	C574.472717,304.099701 591.591003,307.662231 606.889343,326.789703 
	C615.752686,337.871429 620.515076,351.007812 625.091980,364.277313 
	C627.754211,371.995605 631.487244,379.361023 634.989136,386.766693 
	C636.921814,390.853973 640.500427,392.257690 644.451233,389.926849 
	C651.923950,385.518250 659.570984,381.224182 666.355286,375.879395 
	C673.496155,370.253662 679.638611,363.373810 686.368469,357.206879 
	C689.143921,354.663574 692.313477,352.550446 695.659790,350.473145 
	C681.902527,373.074158 671.567627,397.035400 665.562561,422.832092 
	C664.831726,425.971588 663.860474,429.055115 663.000610,432.164581 
	C644.504639,439.401367 626.282776,440.708160 609.006042,428.945129 
	C599.904602,422.748260 595.038208,413.338654 590.963318,403.430756 
	C586.901611,393.554993 583.025085,383.573944 578.360779,373.982635 
	C572.672119,362.284912 563.715576,360.771515 554.121216,369.409027 
	C541.495483,380.775665 531.444214,394.278198 522.744263,408.745667 
	C512.832031,425.229187 503.369781,441.983276 493.717346,458.622925 
	C492.294434,461.075836 490.486847,462.311768 487.357269,462.071716 
	C476.335785,461.226196 465.238068,461.135468 454.274689,459.855530 
	C447.042542,459.011169 445.757141,456.886780 446.058899,449.566498 
	C446.480255,439.344788 447.309845,429.139923 447.995728,418.098999 
	C448.696472,414.739349 449.669403,412.245789 449.985718,409.671600 
	C451.725708,395.512024 453.443085,381.346222 454.837524,367.150085 
	C455.164246,363.824066 454.211426,360.372375 453.847321,356.978485 
M559.492188,87.010681 
	C542.813110,121.047768 536.268005,157.769974 530.257874,195.440475 
	C533.022156,194.438583 535.057861,193.850616 536.968140,192.985519 
	C559.582520,182.744019 578.088135,167.141586 593.349365,147.899994 
	C609.105530,128.034393 620.855469,105.827492 628.238281,81.452744 
	C631.264771,71.460754 633.613647,61.395996 631.005127,50.877464 
	C629.023560,42.886761 621.313660,35.474834 613.371582,36.351795 
	C607.286438,37.023724 600.941833,39.706844 595.723999,43.066299 
	C579.305481,53.637310 568.658936,69.300240 559.492188,87.010681 
z"/>
<path fill="#A5E3EC" opacity="1.000000" stroke="none" 
	d="
M498.467590,971.000000 
	C492.049683,970.001831 486.131317,968.484924 480.142242,968.116150 
	C468.549377,967.402344 456.918488,967.167053 445.300018,967.041443 
	C429.806000,966.873901 414.303375,966.750305 398.814667,967.082825 
	C387.403687,967.327637 376.014404,968.457703 364.605072,968.954895 
	C357.329468,969.271851 353.178162,964.450134 353.954681,957.232605 
	C356.002686,938.196106 357.878540,919.140259 360.063721,900.119690 
	C362.209595,881.441589 364.777374,862.811951 366.925812,844.134094 
	C368.793152,827.899780 370.190857,811.611511 372.055634,795.376892 
	C374.201019,776.698853 376.736176,758.065674 378.902954,739.389954 
	C380.443939,726.107605 381.527130,712.772217 383.047089,699.487183 
	C384.884277,683.429626 387.073547,667.412354 388.910126,651.354736 
	C390.429596,638.069641 391.511322,624.734131 393.050751,611.451599 
	C395.215240,592.775696 397.719849,574.139282 399.895203,555.464539 
	C401.423157,542.347656 402.791626,529.207947 403.948975,516.053589 
	C404.661285,507.957794 406.652771,505.541107 414.608643,505.024139 
	C430.125580,504.015839 445.640472,502.919708 461.172821,502.238068 
	C465.742584,502.037476 466.257904,506.233673 465.888885,509.473236 
	C464.545990,521.261963 462.727631,532.995605 461.218903,544.766724 
	C459.729553,556.386902 458.460754,568.035400 456.979919,579.656738 
	C455.500427,591.268127 453.839355,602.856262 452.329346,614.463867 
	C450.839722,625.914795 449.439758,637.377380 448.000397,648.834839 
	C446.540588,660.455139 445.094025,672.077209 443.616486,683.695251 
	C442.430756,693.018799 441.213226,702.338257 439.999237,711.658203 
	C438.444580,723.593384 436.856720,735.524353 435.325104,747.462463 
	C433.855652,758.916077 432.439728,770.376465 431.000366,781.833923 
	C429.540558,793.454285 428.094360,805.076355 426.616821,816.694458 
	C425.431122,826.017944 424.213287,835.337402 422.999268,844.657288 
	C421.444611,856.592529 419.847839,868.522278 418.328339,880.461975 
	C416.976166,891.087097 415.704590,901.722534 414.390228,912.411804 
	C425.408325,912.411804 436.320160,912.463379 447.231201,912.394775 
	C455.378021,912.343628 463.544739,911.706421 471.665344,912.099365 
	C484.366730,912.713989 497.115356,913.410400 509.694305,915.152649 
	C519.343201,916.489197 524.980408,924.430359 523.883423,934.107361 
	C522.696960,944.574585 520.776489,954.967957 518.849792,965.332947 
	C518.507202,967.176208 516.571899,968.723389 515.186035,970.703613 
	C509.645081,971.000000 504.290131,971.000000 498.467590,971.000000 
z"/>
<path fill="#FEC357" opacity="1.000000" stroke="none" 
	d="
M1.000000,378.454102 
	C1.592008,376.206635 2.177101,374.410919 2.777147,372.620239 
	C7.051802,359.863708 20.620016,357.292450 30.309988,358.269287 
	C34.349648,358.676544 38.310120,359.869354 42.658791,360.778625 
	C42.100395,356.084900 41.135651,351.464966 41.075439,346.833252 
	C40.872372,331.212097 48.387486,321.377808 63.556202,318.388916 
	C73.139763,316.500549 86.384369,321.331848 90.857063,335.422241 
	C92.574867,340.833893 92.870094,346.697113 93.829987,352.453247 
	C98.113976,350.674652 102.796219,348.502411 107.636505,346.772308 
	C115.804642,343.852631 123.997597,344.011841 131.189178,349.151123 
	C141.464859,356.494415 148.805054,373.242035 137.319275,386.955048 
	C132.255081,393.001282 124.971069,395.948639 116.660706,397.503235 
	C120.973907,402.872620 125.033577,407.773621 128.927155,412.803253 
	C138.889328,425.672241 129.606720,448.924683 113.217247,452.108948 
	C101.073029,454.468414 91.870598,448.725250 85.228584,440.541534 
	C83.689041,438.644653 82.129143,436.764313 80.880661,435.244141 
	C76.501785,441.471344 72.745354,447.777313 68.053337,453.286407 
	C58.106239,464.965790 34.899517,461.106750 27.671574,447.102295 
	C22.328316,436.749512 25.873785,426.984528 30.946188,417.602631 
	C32.028027,415.601685 33.394047,413.754395 34.746922,411.653351 
	C28.728191,410.286316 23.001003,409.262970 17.440554,407.660889 
	C7.864812,404.901978 2.700826,398.271362 1.334090,388.194489 
	C1.000000,384.969391 1.000000,381.938812 1.000000,378.454102 
M62.555210,403.996521 
	C65.779434,407.350983 69.778084,408.467529 74.293060,407.988495 
	C80.783150,407.299927 85.484001,403.931793 87.911171,397.940460 
	C90.441673,391.694092 89.246078,385.658081 84.471214,381.048492 
	C80.013161,376.744812 74.470184,375.182281 68.095520,377.027130 
	C57.965656,379.958740 52.612278,394.377106 62.555210,403.996521 
z"/>
<path fill="#FE85D0" opacity="1.000000" stroke="none" 
	d="
M1467.000000,592.562500 
	C1461.135376,614.387634 1444.554321,626.363586 1427.425049,637.738220 
	C1420.728394,642.184998 1413.608887,645.994873 1406.375244,650.276306 
	C1391.269897,631.602905 1374.067871,614.964355 1368.683228,591.060852 
	C1365.173950,575.481567 1370.954224,559.997742 1388.728760,556.544678 
	C1397.334229,554.872986 1408.584961,559.361267 1413.048096,567.240356 
	C1414.672852,570.108826 1416.000000,573.145935 1417.703003,576.591919 
	C1425.193481,568.565613 1434.038208,563.016907 1445.653076,564.023010 
	C1455.933350,564.913391 1464.695435,574.080078 1466.686768,585.789062 
	C1467.000000,588.041687 1467.000000,590.083313 1467.000000,592.562500 
z"/>
<path fill="#FE85D0" opacity="1.000000" stroke="none" 
	d="
M453.494568,356.956665 
	C454.211426,360.372375 455.164246,363.824066 454.837524,367.150085 
	C453.443085,381.346222 451.725708,395.512024 449.985718,409.671600 
	C449.669403,412.245789 448.696472,414.739349 447.939972,417.654205 
	C439.929657,426.498108 432.127747,435.075958 424.058136,443.394135 
	C404.839783,463.204529 382.643799,478.971832 357.651947,490.588898 
	C341.444427,498.122681 324.465912,503.188965 306.517792,505.180328 
	C284.300232,507.645325 262.827759,505.615143 242.666733,495.750885 
	C222.138596,485.707001 206.858215,470.002411 195.923233,449.915710 
	C186.326645,432.287506 180.587128,413.366089 177.205444,393.772736 
	C173.295654,371.119415 173.085358,348.131226 174.203720,325.274200 
	C175.412292,300.573456 179.008408,276.042755 185.259308,252.081497 
	C188.997650,237.751541 194.203262,223.804367 199.303345,209.327942 
	C205.797195,210.431778 211.769531,211.773773 217.668808,213.383530 
	C225.280502,215.460587 228.044617,214.703720 231.058975,207.557220 
	C235.885696,196.113983 240.491394,184.545212 244.442429,172.778305 
	C246.465469,166.753326 247.162003,160.219437 247.933197,153.851990 
	C249.206192,143.341125 246.515442,133.915131 239.082077,126.091515 
	C245.123108,118.477829 250.652115,110.376984 257.324524,103.364014 
	C267.471558,92.699005 277.761292,81.985558 289.168610,72.747528 
	C305.768402,59.304497 324.819031,50.001259 345.895905,45.598930 
	C372.240479,40.096344 397.534790,41.786140 420.458130,57.738373 
	C431.698242,65.560295 440.150116,75.724411 446.438660,87.843567 
	C456.414642,107.069046 460.876312,127.750923 462.999298,149.081680 
	C463.521729,154.330597 461.301178,157.487503 456.116486,158.933640 
	C445.193298,161.980331 434.107605,163.700272 422.795929,162.816666 
	C420.884308,162.667343 418.140594,160.501404 417.514130,158.673370 
	C414.048065,148.559067 411.285553,138.206345 407.964172,128.039108 
	C403.446411,114.209381 396.563049,101.723610 383.463348,94.374763 
	C368.699493,86.092346 354.241699,89.673134 340.694550,97.916336 
	C320.568909,110.162422 306.069824,127.980652 293.359192,147.361420 
	C271.035248,181.400192 255.390488,218.464127 245.079391,257.709869 
	C240.277847,275.985413 235.881500,294.521851 233.445099,313.219391 
	C231.161896,330.741333 230.573975,348.679352 231.312378,366.347626 
	C232.127289,385.846405 236.518127,404.883942 246.089508,422.365906 
	C255.701569,439.922180 269.712524,451.358276 290.054749,452.782654 
	C300.987762,453.548187 311.605804,450.201050 321.777924,446.067596 
	C340.828918,438.326263 357.496338,426.813354 372.998260,413.488800 
	C378.393677,408.851196 383.780579,404.199463 389.050873,399.421295 
	C402.755554,386.996246 413.906158,372.376068 424.749786,357.509338 
	C430.447052,349.698303 432.944153,348.721924 441.816345,351.916534 
	C445.691406,353.311829 449.372559,355.245605 453.494568,356.956665 
z"/>
<path fill="#A5E3EC" opacity="1.000000" stroke="none" 
	d="
M1076.025024,808.890503 
	C1066.572510,817.204956 1057.483887,825.983643 1047.593018,833.738953 
	C1025.721802,850.888000 1001.923096,864.178955 973.782166,868.064697 
	C948.051270,871.617676 924.560364,865.804932 904.015991,850.175415 
	C891.528442,840.675232 882.969971,827.632812 877.149597,813.026428 
	C870.808960,797.114380 866.915039,780.608337 865.972351,763.449097 
	C865.373108,752.542358 863.817200,741.612793 864.188477,730.744751 
	C864.820496,712.247253 866.040833,693.724121 868.094238,675.332336 
	C870.875061,650.426941 874.627319,625.628784 878.064575,600.798706 
	C879.214478,592.492004 880.676208,584.228516 882.187073,574.741577 
	C877.112061,575.349670 872.651611,575.822998 868.209045,576.428406 
	C857.264709,577.920044 846.366882,579.894836 835.379150,580.889099 
	C822.672485,582.039062 822.466125,578.622437 820.428955,568.899597 
	C818.602966,560.184509 818.785339,550.881531 819.379517,541.924011 
	C819.567566,539.089722 823.451660,535.223328 826.484741,534.101196 
	C834.649414,531.080627 843.165405,528.740967 851.730225,527.135681 
	C863.550720,524.920288 875.550293,523.669250 887.458496,521.906006 
	C890.369934,521.474915 892.466675,520.301575 893.112854,516.745850 
	C896.591797,497.603363 899.966309,478.427277 904.149109,459.432861 
	C906.592163,448.338745 909.919861,437.356537 913.851257,426.693298 
	C919.241394,412.073730 932.391418,409.104065 946.131653,410.316956 
	C951.979004,410.833130 957.809448,412.532349 963.431274,414.359314 
	C970.312622,416.595490 971.572205,419.460571 969.969360,426.367737 
	C963.366577,454.821930 956.768311,483.277191 950.212769,511.742249 
	C949.850403,513.315857 949.886963,514.981323 949.693054,517.090881 
	C964.261108,516.437012 978.636353,515.789429 993.012024,515.150085 
	C994.674683,515.076172 996.339233,515.042053 998.003174,515.001099 
	C1011.620178,514.665833 1025.235718,514.227234 1038.854736,514.034790 
	C1049.096436,513.890137 1054.241821,520.545532 1052.360107,530.528015 
	C1050.956421,537.975769 1050.072998,545.523926 1049.040039,553.038696 
	C1047.761475,562.338989 1044.270020,565.978943 1034.837891,565.880066 
	C1025.427368,565.781372 1016.034485,564.503235 1006.618835,564.184509 
	C1001.352783,564.006287 996.056091,564.722778 990.773621,565.042603 
	C980.036804,565.692688 969.299133,566.328064 958.564270,567.009033 
	C953.944397,567.302124 949.300171,567.475952 944.724792,568.116699 
	C941.651672,568.547058 939.506348,570.045044 938.905884,573.812500 
	C935.507385,595.135681 931.657349,616.386902 928.268555,637.711548 
	C925.602844,654.486206 923.459778,671.343140 920.943237,688.142395 
	C917.892029,708.510315 916.271729,729.001587 917.128418,749.557068 
	C917.831116,766.415710 919.831116,783.169067 927.325684,798.733582 
	C938.062500,821.031555 958.845093,825.593445 979.664490,817.104431 
	C997.257874,809.930969 1011.904358,798.341309 1025.781494,785.689941 
	C1035.348267,776.968201 1044.789062,768.108093 1054.653076,759.546875 
	C1057.462769,767.778870 1059.221802,776.070496 1062.528687,783.690369 
	C1066.309204,792.402039 1071.466187,800.516479 1076.025024,808.890503 
z"/>
<path fill="#E8D0FE" opacity="1.000000" stroke="none" 
	d="
M801.256653,763.243286 
	C809.415771,753.844849 817.394592,744.757996 825.196960,735.522034 
	C828.456116,731.664001 831.532043,730.576843 835.388916,734.110596 
	C842.576904,740.696350 849.150208,747.953552 855.961487,754.948669 
	C856.417175,755.416626 856.682495,756.064209 857.105774,756.570190 
	C863.435669,764.135681 863.768616,765.668030 857.616211,773.535461 
	C846.772278,787.402039 835.356140,800.809143 821.575134,811.926147 
	C808.694885,822.316650 796.174316,833.256958 782.588379,842.642334 
	C765.465942,854.470886 746.804871,863.576782 726.049683,867.460815 
	C709.793030,870.503052 694.025146,869.528076 679.498291,860.736145 
	C666.977661,853.158325 659.652588,841.506958 654.946655,828.048523 
	C653.057251,822.645203 651.760132,817.034912 649.774109,810.042480 
	C644.512268,816.436707 639.527649,822.040344 635.047913,828.022034 
	C621.005615,846.772644 603.359192,860.658203 580.604370,866.799561 
	C552.180420,874.471069 523.522583,863.476013 506.141327,839.339294 
	C496.009186,825.269226 490.568176,809.647644 488.884918,792.378235 
	C486.012604,762.910645 493.212280,736.312805 511.584167,713.282166 
	C529.083862,691.344849 551.923828,677.820618 580.069397,673.950867 
	C602.701294,670.839355 623.583740,674.973816 642.314270,688.558899 
	C645.627808,690.962219 649.323181,692.839111 653.725830,695.491394 
	C654.898499,688.497131 655.977295,682.249084 656.985718,675.989807 
	C657.826050,670.773743 658.359375,665.497925 659.430542,660.331848 
	C661.065308,652.447510 664.273010,649.292664 672.313232,649.144165 
	C682.664185,648.952820 693.075378,649.192932 703.379272,650.135925 
	C712.344360,650.956421 714.375732,654.172607 712.902771,663.270874 
	C710.712585,676.799500 708.126221,690.263672 705.904602,703.787537 
	C702.828247,722.514771 699.776855,741.248840 697.011902,760.023682 
	C694.841248,774.763367 695.408691,789.381348 699.782593,803.794373 
	C705.979797,824.216248 715.071045,826.160095 733.223450,817.523071 
	C744.452759,812.180054 754.833740,804.536011 764.531921,796.621643 
	C777.238708,786.252075 788.896240,774.596924 801.256653,763.243286 
M553.839600,741.338989 
	C546.772827,750.416443 542.514038,760.844971 540.259460,771.954163 
	C537.372742,786.177979 538.172546,800.102173 547.212402,812.312927 
	C553.649841,821.008362 565.770813,826.129578 576.467651,817.830261 
	C584.262695,811.782410 591.570740,804.990601 598.451538,797.904724 
	C613.102112,782.817871 624.463318,765.290955 634.523560,746.911743 
	C640.767090,735.505310 641.014282,735.059326 631.302063,726.975830 
	C616.687744,714.812256 600.357849,710.314148 581.878174,718.005493 
	C570.314270,722.818481 561.432373,730.736450 553.839600,741.338989 
z"/>
<path fill="#FE85D0" opacity="1.000000" stroke="none" 
	d="
M1068.880127,287.951416 
	C1076.250244,270.178589 1084.721313,253.010132 1097.009888,238.025757 
	C1111.508911,220.346207 1128.586060,205.607361 1151.865112,202.460129 
	C1184.136963,198.097153 1214.261475,211.694504 1227.351440,245.639771 
	C1232.718872,259.558685 1234.509399,274.046387 1235.009277,288.796997 
	C1235.052979,290.087860 1235.222778,291.374481 1235.336670,292.693726 
	C1259.171631,291.154266 1278.847290,280.630798 1296.991333,266.509583 
	C1297.642944,266.002441 1298.285889,265.480713 1298.967407,265.016327 
	C1305.059204,260.865265 1305.629395,261.070190 1310.036743,266.962189 
	C1312.603394,270.393402 1315.579834,273.517914 1318.690308,277.305450 
	C1319.694458,279.285248 1320.246582,280.822998 1321.088623,282.180939 
	C1325.340698,289.039124 1325.057129,291.417053 1319.409912,297.283417 
	C1317.735229,299.023163 1316.347778,301.039368 1314.828735,302.928894 
	C1298.141724,317.694061 1278.334717,326.594574 1257.289185,332.863190 
	C1248.175659,335.577759 1238.652588,336.893890 1229.402466,339.194550 
	C1227.688477,339.620819 1225.718384,341.428467 1225.004395,343.088074 
	C1218.332520,358.597321 1211.489990,373.933350 1201.257812,387.599121 
	C1187.229736,406.334625 1169.661621,420.073914 1146.274902,423.534790 
	C1120.482666,427.351624 1096.050171,423.544250 1076.893188,403.351044 
	C1066.250977,392.133148 1061.407227,378.212555 1059.031860,363.270569 
	C1058.489258,359.857239 1058.311157,356.385956 1057.968872,352.028137 
	C1057.642700,336.807251 1059.794678,322.799164 1063.220947,308.967865 
	C1064.965210,301.927185 1066.984863,294.954742 1068.880127,287.951416 
M1157.778442,335.865448 
	C1140.729614,330.346924 1126.683350,320.534271 1115.825928,305.219360 
	C1114.927856,308.390442 1114.390503,310.432678 1113.771606,312.449921 
	C1108.305054,330.268829 1104.242065,348.237701 1109.045166,366.911285 
	C1112.052124,378.601807 1118.231201,388.780518 1130.194336,386.840271 
	C1134.445801,386.150726 1138.793579,384.258392 1142.427490,381.888000 
	C1154.314697,374.134003 1162.225342,362.702454 1169.537354,350.863464 
	C1171.707520,347.349731 1173.489990,343.596466 1175.468994,339.917603 
	C1169.128906,338.452393 1163.851929,337.232910 1157.778442,335.865448 
M1184.145874,250.416473 
	C1179.130737,239.219620 1169.191895,232.761169 1157.168457,241.026001 
	C1154.202637,243.064713 1151.554932,245.704788 1149.174072,248.429520 
	C1142.431396,256.146515 1142.017944,266.777222 1147.718262,275.435944 
	C1152.709839,283.018066 1160.236938,287.118561 1168.414429,289.850800 
	C1175.129761,292.094543 1182.213623,293.235382 1189.519897,294.955933 
	C1191.445557,278.875305 1190.589844,264.666992 1184.145874,250.416473 
z"/>
<path fill="#A5E3EC" opacity="1.000000" stroke="none" 
	d="
M663.000366,432.617035 
	C663.860474,429.055115 664.831726,425.971588 665.562561,422.832092 
	C671.567627,397.035400 681.902527,373.074158 695.976929,350.342224 
	C703.478455,338.973175 712.141724,328.984192 722.724915,320.782227 
	C734.279907,311.827118 747.177551,306.668854 761.981812,305.883301 
	C774.876648,305.199066 787.248779,306.139832 799.034485,311.967560 
	C815.445251,320.082275 825.480286,333.612732 832.119873,350.109131 
	C838.034180,364.803253 840.007324,380.140259 838.798401,396.464050 
	C858.583069,394.393860 876.260071,388.484680 891.841675,376.704926 
	C896.326904,373.314117 900.983582,370.108398 905.815613,367.246674 
	C907.060974,366.509064 910.043030,366.695129 910.911011,367.651489 
	C917.023438,374.386688 922.921021,381.330353 928.618713,388.423187 
	C931.718445,392.281982 929.218018,395.868713 926.691345,398.681641 
	C914.962524,411.739014 900.453308,420.887695 884.544189,427.999847 
	C868.296692,435.263245 851.346802,440.110107 833.862549,443.319580 
	C832.051758,443.651978 829.790771,445.730133 829.133484,447.512604 
	C820.432922,471.107086 807.849976,492.157471 788.674683,508.709778 
	C775.027344,520.490356 759.285522,527.481689 740.874268,528.083557 
	C726.884399,528.540955 713.427856,526.789917 700.683044,520.854248 
	C680.780518,511.585052 670.205750,495.063629 665.067017,474.462494 
	C661.663696,460.818634 662.280212,446.938141 663.000366,432.617035 
M737.106079,489.860840 
	C759.161865,481.607025 769.141052,462.484985 780.403381,443.507477 
	C755.501526,439.142426 734.379150,430.826233 720.760132,409.003448 
	C718.146423,416.464447 715.977234,423.336121 714.420959,430.343872 
	C710.924866,446.085999 710.433777,461.792419 715.941345,477.291840 
	C719.619263,487.642273 726.947449,492.265869 737.106079,489.860840 
M757.010498,383.511169 
	C765.886963,391.827698 776.663757,396.083282 788.470886,397.921661 
	C791.774353,398.436005 795.357483,398.634064 795.141663,393.306702 
	C794.903320,387.424866 795.411438,381.496185 794.917969,375.644958 
	C794.040833,365.244873 790.624756,355.490875 784.370972,347.175385 
	C779.217651,340.323120 770.631287,336.864258 762.184204,343.345276 
	C758.786377,345.952271 755.363342,348.739960 752.705444,352.050476 
	C748.104431,357.781281 745.088318,364.433136 748.550903,371.740204 
	C750.489685,375.831451 753.806396,379.269684 757.010498,383.511169 
z"/>
<path fill="#FE85D0" opacity="1.000000" stroke="none" 
	d="
M1076.334473,809.051025 
	C1071.466187,800.516479 1066.309204,792.402039 1062.528687,783.690369 
	C1059.221802,776.070496 1057.462769,767.778870 1054.940186,759.392761 
	C1054.240234,749.612061 1052.763672,740.186707 1053.156616,730.839905 
	C1054.464233,699.731018 1061.687988,670.284668 1081.456543,645.318115 
	C1097.184937,625.454224 1117.766357,613.568604 1143.056274,609.913757 
	C1159.213623,607.578674 1174.827881,608.900696 1189.469482,616.283936 
	C1209.040283,626.152954 1218.423584,646.772156 1215.325806,668.036255 
	C1212.312988,688.717590 1203.068970,705.639954 1187.940063,719.437317 
	C1170.749268,735.115234 1151.964355,748.484802 1129.666504,756.157471 
	C1125.931030,757.442871 1122.027710,758.329773 1118.439331,759.932495 
	C1112.731445,762.481934 1111.620483,766.021423 1114.243774,771.535828 
	C1121.874390,787.576294 1136.739014,793.432495 1153.083130,786.364563 
	C1166.227905,780.680176 1178.076416,773.102295 1186.586792,761.101135 
	C1189.199097,757.417297 1193.804688,758.089355 1196.630371,759.585510 
	C1204.182373,763.584290 1211.431274,768.290894 1218.292725,773.398560 
	C1221.501587,775.787231 1219.339966,779.803833 1217.688721,782.379883 
	C1207.875854,797.687805 1195.113403,809.986633 1179.201782,818.941162 
	C1162.575317,828.297974 1144.793823,832.453979 1125.741699,830.996643 
	C1111.859131,829.934814 1099.571411,824.672363 1088.247803,816.808716 
	C1084.451904,814.172607 1080.515869,811.738220 1076.334473,809.051025 
M1161.879150,685.333618 
	C1162.800659,684.174316 1163.848022,683.092834 1164.622314,681.842346 
	C1168.246948,675.988525 1172.558716,670.405273 1175.172729,664.121277 
	C1178.185181,656.879578 1175.061279,648.967773 1166.523560,648.971924 
	C1160.659424,648.974792 1154.338135,649.887146 1149.014648,652.210815 
	C1129.681396,660.650024 1118.455078,676.489990 1112.246094,696.029053 
	C1110.161743,702.588013 1109.643188,709.644470 1108.213257,717.557007 
	C1129.779297,711.069641 1146.662842,700.228699 1161.879150,685.333618 
z"/>
<path fill="#E8D0FE" opacity="1.000000" stroke="none" 
	d="
M1068.536133,288.005981 
	C1066.984863,294.954742 1064.965210,301.927185 1063.220947,308.967865 
	C1059.794678,322.799164 1057.642700,336.807251 1057.926270,351.585144 
	C1048.882202,355.420044 1039.917114,358.876160 1030.879395,362.130768 
	C1010.629761,369.423065 989.658813,372.553894 968.270752,370.831757 
	C952.186401,369.536682 937.280945,364.414001 924.748657,353.375916 
	C909.327148,339.793030 901.119446,322.621155 897.996826,302.670258 
	C893.574158,274.413269 898.823853,247.591919 911.058472,222.153961 
	C922.081116,199.235992 937.776611,180.073196 960.800354,168.235229 
	C977.226257,159.789597 994.816772,157.901550 1013.048767,161.468231 
	C1032.103760,165.195923 1046.870728,175.007507 1056.200439,192.034592 
	C1059.402954,197.879181 1061.133179,204.634811 1062.840820,211.156281 
	C1063.924561,215.294968 1060.830933,219.619034 1055.970459,220.780151 
	C1048.604370,222.539825 1041.090576,224.118820 1033.570923,224.533356 
	C1031.276123,224.659866 1028.271484,221.063644 1026.424805,218.558380 
	C1019.058350,208.564224 1009.419434,203.018692 996.996216,204.168930 
	C986.382751,205.151581 978.135864,211.342896 971.481262,219.287598 
	C958.104919,235.257080 950.885742,254.127533 948.338562,274.500732 
	C947.079224,284.573364 946.834900,295.060486 950.502380,305.076233 
	C956.929260,322.627747 969.041748,327.056488 984.973511,324.457855 
	C1014.069153,319.712128 1039.455200,306.181213 1063.887695,290.505463 
	C1065.274536,289.615662 1066.755127,288.872162 1068.536133,288.005981 
z"/>
<path fill="#FEC357" opacity="1.000000" stroke="none" 
	d="
M1315.300781,703.643738 
	C1325.000244,716.962952 1334.667725,729.856812 1343.945557,743.025085 
	C1351.865601,754.265808 1355.710938,766.906921 1357.205200,780.668274 
	C1358.791748,795.278381 1356.520752,808.978882 1349.945312,821.766602 
	C1338.546143,843.935730 1320.049072,855.324951 1294.998901,853.804077 
	C1279.775146,852.879761 1265.973145,846.950317 1254.286255,836.778625 
	C1248.803589,832.006836 1243.169800,827.386536 1237.952637,822.337952 
	C1232.715576,817.269958 1233.033813,815.752258 1237.897705,810.541809 
	C1243.423584,804.622131 1248.726685,798.492859 1254.065063,792.400635 
	C1256.144653,790.027222 1257.734009,789.388000 1260.589722,791.889587 
	C1265.896362,796.538269 1271.549316,800.858459 1277.413696,804.784241 
	C1282.865479,808.433716 1288.887817,810.253845 1295.656250,808.085083 
	C1300.588623,806.504639 1302.964966,802.531006 1302.262451,797.350647 
	C1300.421753,783.775452 1291.891724,773.710327 1284.505249,763.117981 
	C1275.017090,749.511902 1263.787598,737.089478 1256.915894,721.734253 
	C1248.073853,701.976562 1245.539185,681.699890 1254.434204,661.511658 
	C1262.089111,644.138000 1276.302124,633.989807 1294.830200,630.032349 
	C1315.282471,625.664001 1334.055054,629.770935 1350.860718,642.063232 
	C1356.305298,646.045593 1361.076538,650.968933 1366.017578,655.609070 
	C1368.088135,657.553406 1368.136230,659.419556 1365.833008,661.824768 
	C1359.666260,668.264343 1353.892822,675.080566 1347.817505,681.911072 
	C1342.892212,678.504700 1338.366821,675.006470 1333.483765,672.111572 
	C1329.414673,669.699341 1325.095947,667.408142 1320.587036,666.102234 
	C1311.876343,663.579346 1306.305176,668.083069 1306.010986,677.251221 
	C1305.718384,686.360962 1309.149170,694.258728 1314.116333,701.635498 
	C1314.481445,702.177673 1314.773560,702.768982 1315.300781,703.643738 
z"/>
<path fill="#FE85D0" opacity="1.000000" stroke="none" 
	d="
M758.236450,606.375000 
	C753.894775,607.526489 749.900635,608.489197 745.392090,609.575867 
	C751.343445,617.006165 754.253174,625.499756 750.754822,634.730530 
	C749.519470,637.989990 746.469055,641.148987 743.426086,643.013489 
	C737.110291,646.883423 730.125427,645.910583 724.998291,641.079041 
	C720.458069,636.800537 717.415344,630.932800 713.405334,625.339600 
	C712.808167,626.050232 711.797241,627.207336 710.836060,628.404480 
	C705.100281,635.548462 697.645508,638.992981 688.559998,637.854858 
	C682.785095,637.131409 678.351501,633.721191 676.240723,628.200256 
	C673.524353,621.095398 675.261902,614.444885 679.908875,608.735596 
	C682.377075,605.703247 685.635071,603.313721 689.151367,600.066223 
	C678.588257,596.786011 669.972534,591.485840 668.307373,579.964600 
	C667.854004,576.827576 669.026367,572.938843 670.675415,570.107361 
	C676.662109,559.828003 687.187500,559.383789 704.839661,568.370056 
	C704.773743,560.299133 706.528076,553.104797 712.288879,547.058716 
	C717.312988,541.785706 723.360718,540.821716 729.623108,542.490417 
	C736.574280,544.342529 739.974365,550.189514 740.844788,556.953735 
	C741.512329,562.141174 740.977661,567.483337 740.977661,572.973389 
	C745.751160,572.973389 751.405884,572.444336 756.921753,573.094299 
	C765.747620,574.134216 771.480347,580.093628 771.995239,587.659485 
	C772.562561,595.995239 767.186890,603.421387 758.236450,606.375000 
z"/>
<path fill="#A5E3EC" opacity="1.000000" stroke="none" 
	d="
M1315.001709,303.230591 
	C1316.347778,301.039368 1317.735229,299.023163 1319.409912,297.283417 
	C1325.057129,291.417053 1325.340698,289.039124 1321.088623,282.180939 
	C1320.246582,280.822998 1319.694458,279.285248 1318.990723,277.467834 
	C1320.588379,276.102020 1322.203979,275.098816 1324.479126,273.686096 
	C1320.770264,271.467407 1317.747681,269.857330 1314.933594,267.941376 
	C1303.379028,260.074432 1304.586548,241.088959 1316.931152,234.513306 
	C1322.971680,231.295700 1328.550171,233.499008 1334.131226,235.642319 
	C1336.589600,236.586411 1338.873413,237.984833 1340.981323,239.048248 
	C1342.973633,234.065170 1344.410889,228.654190 1347.156250,224.017792 
	C1351.556030,216.587311 1360.391846,213.486115 1367.742188,215.821106 
	C1377.266235,218.846588 1381.119995,224.054810 1380.939575,234.314514 
	C1380.868408,238.355850 1380.118408,242.385254 1379.723389,246.001587 
	C1384.741821,246.001587 1389.847290,245.841583 1394.933350,246.084625 
	C1396.823975,246.174942 1398.806519,246.951523 1400.510498,247.859436 
	C1406.634155,251.122406 1411.327637,261.928925 1409.869995,268.990387 
	C1408.430420,275.962891 1401.608643,282.003571 1394.075806,282.975372 
	C1391.308594,283.332397 1388.541260,283.687897 1385.151489,284.124207 
	C1386.334351,286.957336 1387.429443,289.307861 1388.310791,291.735992 
	C1393.539795,306.143982 1388.239136,315.384003 1374.248291,319.693909 
	C1367.502075,321.772034 1359.514648,317.379578 1355.658569,310.240692 
	C1354.001587,307.173279 1352.492065,304.026184 1350.729736,300.548553 
	C1344.747681,307.264618 1338.597168,313.094482 1328.600708,312.120544 
	C1322.377930,311.514221 1318.954224,307.465240 1315.001709,303.230591 
M1365.538940,262.275543 
	C1363.109253,258.808655 1359.724731,257.950500 1355.612793,257.892822 
	C1350.651855,257.823334 1347.196655,259.933868 1345.231689,264.099121 
	C1343.217773,268.368103 1343.268066,272.648315 1346.868530,276.492584 
	C1350.330200,280.188660 1354.042847,282.007599 1359.210938,280.420227 
	C1365.004150,278.640900 1369.387695,272.939423 1365.538940,262.275543 
z"/>
<path fill="#E8D0FE" opacity="1.000000" stroke="none" 
	d="
M238.754532,125.934998 
	C246.515442,133.915131 249.206192,143.341125 247.933197,153.851990 
	C247.162003,160.219437 246.465469,166.753326 244.442429,172.778305 
	C240.491394,184.545212 235.885696,196.113983 231.058975,207.557220 
	C228.044617,214.703720 225.280502,215.460587 217.668808,213.383530 
	C211.769531,211.773773 205.797195,210.431778 199.451645,208.994141 
	C187.641129,202.651611 175.396957,197.407913 165.030060,189.654236 
	C149.844864,178.296860 148.232651,154.876648 164.795578,144.923599 
	C173.717560,139.562180 183.144043,140.494904 192.083817,145.700623 
	C193.907227,146.762421 195.563553,148.111145 197.893753,149.746460 
	C197.531219,142.210266 199.390305,135.885452 203.977325,130.526337 
	C212.463776,120.611473 225.396179,117.471466 238.754532,125.934998 
z"/>
<path fill="#FFFFFF" opacity="1.000000" stroke="none" 
	d="
M559.692505,86.691963 
	C568.658936,69.300240 579.305481,53.637310 595.723999,43.066299 
	C600.941833,39.706844 607.286438,37.023724 613.371582,36.351795 
	C621.313660,35.474834 629.023560,42.886761 631.005127,50.877464 
	C633.613647,61.395996 631.264771,71.460754 628.238281,81.452744 
	C620.855469,105.827492 609.105530,128.034393 593.349365,147.899994 
	C578.088135,167.141586 559.582520,182.744019 536.968140,192.985519 
	C535.057861,193.850616 533.022156,194.438583 530.257874,195.440475 
	C536.268005,157.769974 542.813110,121.047768 559.692505,86.691963 
z"/>
<path fill="#FEFDFB" opacity="1.000000" stroke="none" 
	d="
M62.288109,403.738220 
	C52.612278,394.377106 57.965656,379.958740 68.095520,377.027130 
	C74.470184,375.182281 80.013161,376.744812 84.471214,381.048492 
	C89.246078,385.658081 90.441673,391.694092 87.911171,397.940460 
	C85.484001,403.931793 80.783150,407.299927 74.293060,407.988495 
	C69.778084,408.467529 65.779434,407.350983 62.288109,403.738220 
z"/>
<path fill="#FFFFFF" opacity="1.000000" stroke="none" 
	d="
M553.992188,741.014221 
	C561.432373,730.736450 570.314270,722.818481 581.878174,718.005493 
	C600.357849,710.314148 616.687744,714.812256 631.302063,726.975830 
	C641.014282,735.059326 640.767090,735.505310 634.523560,746.911743 
	C624.463318,765.290955 613.102112,782.817871 598.451538,797.904724 
	C591.570740,804.990601 584.262695,811.782410 576.467651,817.830261 
	C565.770813,826.129578 553.649841,821.008362 547.212402,812.312927 
	C538.172546,800.102173 537.372742,786.177979 540.259460,771.954163 
	C542.514038,760.844971 546.772827,750.416443 553.992188,741.014221 
z"/>
<path fill="#FFFFFF" opacity="1.000000" stroke="none" 
	d="
M1158.176758,335.939423 
	C1163.851929,337.232910 1169.128906,338.452393 1175.468994,339.917603 
	C1173.489990,343.596466 1171.707520,347.349731 1169.537354,350.863464 
	C1162.225342,362.702454 1154.314697,374.134003 1142.427490,381.888000 
	C1138.793579,384.258392 1134.445801,386.150726 1130.194336,386.840271 
	C1118.231201,388.780518 1112.052124,378.601807 1109.045166,366.911285 
	C1104.242065,348.237701 1108.305054,330.268829 1113.771606,312.449921 
	C1114.390503,310.432678 1114.927856,308.390442 1115.825928,305.219360 
	C1126.683350,320.534271 1140.729614,330.346924 1158.176758,335.939423 
z"/>
<path fill="#FFFFFF" opacity="1.000000" stroke="none" 
	d="
M1184.343018,250.738525 
	C1190.589844,264.666992 1191.445557,278.875305 1189.519897,294.955933 
	C1182.213623,293.235382 1175.129761,292.094543 1168.414429,289.850800 
	C1160.236938,287.118561 1152.709839,283.018066 1147.718262,275.435944 
	C1142.017944,266.777222 1142.431396,256.146515 1149.174072,248.429520 
	C1151.554932,245.704788 1154.202637,243.064713 1157.168457,241.026001 
	C1169.191895,232.761169 1179.130737,239.219620 1184.343018,250.738525 
z"/>
<path fill="#FFFFFF" opacity="1.000000" stroke="none" 
	d="
M736.705505,489.919189 
	C726.947449,492.265869 719.619263,487.642273 715.941345,477.291840 
	C710.433777,461.792419 710.924866,446.085999 714.420959,430.343872 
	C715.977234,423.336121 718.146423,416.464447 720.760132,409.003448 
	C734.379150,430.826233 755.501526,439.142426 780.403381,443.507477 
	C769.141052,462.484985 759.161865,481.607025 736.705505,489.919189 
z"/>
<path fill="#FFFFFF" opacity="1.000000" stroke="none" 
	d="
M756.756348,383.256653 
	C753.806396,379.269684 750.489685,375.831451 748.550903,371.740204 
	C745.088318,364.433136 748.104431,357.781281 752.705444,352.050476 
	C755.363342,348.739960 758.786377,345.952271 762.184204,343.345276 
	C770.631287,336.864258 779.217651,340.323120 784.370972,347.175385 
	C790.624756,355.490875 794.040833,365.244873 794.917969,375.644958 
	C795.411438,381.496185 794.903320,387.424866 795.141663,393.306702 
	C795.357483,398.634064 791.774353,398.436005 788.470886,397.921661 
	C776.663757,396.083282 765.886963,391.827698 756.756348,383.256653 
z"/>
<path fill="#FFFFFF" opacity="1.000000" stroke="none" 
	d="
M1161.685425,685.633484 
	C1146.662842,700.228699 1129.779297,711.069641 1108.213257,717.557007 
	C1109.643188,709.644470 1110.161743,702.588013 1112.246094,696.029053 
	C1118.455078,676.489990 1129.681396,660.650024 1149.014648,652.210815 
	C1154.338135,649.887146 1160.659424,648.974792 1166.523560,648.971924 
	C1175.061279,648.967773 1178.185181,656.879578 1175.172729,664.121277 
	C1172.558716,670.405273 1168.246948,675.988525 1164.622314,681.842346 
	C1163.848022,683.092834 1162.800659,684.174316 1161.685425,685.633484 
z"/>
<path fill="#FDFEFE" opacity="1.000000" stroke="none" 
	d="
M1365.740723,262.621033 
	C1369.387695,272.939423 1365.004150,278.640900 1359.210938,280.420227 
	C1354.042847,282.007599 1350.330200,280.188660 1346.868530,276.492584 
	C1343.268066,272.648315 1343.217773,268.368103 1345.231689,264.099121 
	C1347.196655,259.933868 1350.651855,257.823334 1355.612793,257.892822 
	C1359.724731,257.950500 1363.109253,258.808655 1365.740723,262.621033 
z"/>
</svg>